<svg xmlns="http://www.w3.org/2000/svg" width="64" height="64" viewBox="0 0 64 64">
  <g fill="#111111">
    <rect x="28" y="1" width="8" height="14" rx="2" />
    <rect x="28" y="1" width="8" height="14" rx="2" transform="rotate(45 32 32)" />
    <rect x="28" y="1" width="8" height="14" rx="2" transform="rotate(90 32 32)" />
    <rect x="28" y="1" width="8" height="14" rx="2" transform="rotate(135 32 32)" />
    <rect x="28" y="1" width="8" height="14" rx="2" transform="rotate(180 32 32)" />
    <rect x="28" y="1" width="8" height="14" rx="2" transform="rotate(225 32 32)" />
    <rect x="28" y="1" width="8" height="14" rx="2" transform="rotate(270 32 32)" />
    <rect x="28" y="1" width="8" height="14" rx="2" transform="rotate(315 32 32)" />
    <circle cx="32" cy="32" r="22" />
    <circle cx="32" cy="32" r="10" fill="#ffffff" />
  </g>
</svg>
